<svg xmlns="http://www.w3.org/2000/svg" viewBox="0 0 47.47 47.47"><defs><style>.cls-1{fill:#942100;}.cls-2{fill:#ffba3b;}</style></defs><title>img-btn-extras</title><g id="Capa_2" data-name="Capa 2"><g id="Capa_1-2" data-name="Capa 1"><path class="cls-1" d="M32.67,38c.56,0,1.59-1.27,1.43-1.73a.34.34,0,0,0-.15-.18.19.19,0,0,0-.26.1,2.65,2.65,0,0,1-1.13,1.42.22.22,0,0,0,0,.29c0,.06.13.08.15.1m-3.41,1.26a12.69,12.69,0,0,0,2.38-.67c.17-.07.3-.18.2-.38s-.23-.15-.37-.1a14.29,14.29,0,0,1-2.32.66c-.17,0-.33.12-.3.33s.21.17.41.16M21,15.65a1.45,1.45,0,1,0-1.48-1.44A1.44,1.44,0,0,0,21,15.65m2.11-5.5A1.43,1.43,0,0,0,24.6,8.7a1.45,1.45,0,0,0-1.49-1.43,1.46,1.46,0,0,0-1.43,1.44,1.42,1.42,0,0,0,1.47,1.44M28.38,12a1.72,1.72,0,0,0-1.69-1.73,1.74,1.74,0,0,0-.05,3.47A1.72,1.72,0,0,0,28.38,12M24.3,16.39c-2.47,0-4.95,0-7.43,0-.85,0-1.13.41-.82,1.2s.45,1.3.76,1.91.09.74-.41.94a12.11,12.11,0,0,0-3.57,2.25c-3,2.71-3.43,6.55-1,9.65a10.14,10.14,0,0,0,2,1.88c.19.13.29.22.15.48a1.38,1.38,0,0,0,.54,2.11,6.39,6.39,0,0,0,2.17.91,29.86,29.86,0,0,0,13.3.07,6.66,6.66,0,0,0,2.37-.92c.54-.36,1.15-.85.86-1.5-.42-.93.15-1.22.7-1.63.18-.13.34-.3.51-.45a6.75,6.75,0,0,0,.64-9.81A10.52,10.52,0,0,0,31.88,21a.53.53,0,0,1-.3-.79c.28-.78.5-1.58.75-2.37.36-1.15.15-1.45-1-1.45h-7m-.61,31.08A23.74,23.74,0,1,1,47.47,23.82,23.73,23.73,0,0,1,23.69,47.47"/><path class="cls-2" d="M23.89,38a23.12,23.12,0,0,0,2.38-.15,17.77,17.77,0,0,0,4.94-1A3,3,0,0,0,32.56,36a.73.73,0,0,0,0-1c-.26-.37-.49,0-.69.09A18.07,18.07,0,0,1,15,35c-.49-.24-.75-.11-.81.43a.92.92,0,0,0,.46.89,5.67,5.67,0,0,0,1.75.8,28.88,28.88,0,0,0,7.45.89m.36-21.11h-7c-.84,0-.86,0-.57.78.23.58.48,1.15.68,1.74s.37.52.82.38a18.57,18.57,0,0,1,12.39.56c.41.17.49,0,.59-.3.24-.82.5-1.63.75-2.44s.19-.72-.5-.72H24.25m-.58,19.7a21,21,0,0,0,4.15-.5,13,13,0,0,0,6.78-3.74,6.11,6.11,0,0,0,.15-8.43A10.58,10.58,0,0,0,31,21.14a17.46,17.46,0,0,0-9.79-1.47,14.71,14.71,0,0,0-7.37,2.82,7,7,0,0,0-3.1,5.38,6.75,6.75,0,0,0,3,5.63c2.87,2.25,6.24,3,9.92,3.09m.63-20.2h7c1.18,0,1.4.3,1,1.45-.24.79-.47,1.59-.75,2.37a.53.53,0,0,0,.3.79,10.52,10.52,0,0,1,3.18,2.48,6.75,6.75,0,0,1-.64,9.81,5.47,5.47,0,0,1-.51.45c-.55.41-1.12.7-.7,1.63.29.65-.32,1.14-.85,1.5a6.78,6.78,0,0,1-2.38.92,29.86,29.86,0,0,1-13.3-.07,6.39,6.39,0,0,1-2.17-.91A1.38,1.38,0,0,1,14,34.7c.14-.26,0-.35-.15-.48a10.14,10.14,0,0,1-2-1.88c-2.43-3.1-2-6.94,1-9.65a12.11,12.11,0,0,1,3.57-2.25c.5-.2.69-.39.41-.94s-.51-1.27-.76-1.91,0-1.2.82-1.2c2.48,0,5,0,7.43,0"/><path class="cls-2" d="M25.47,12a1.2,1.2,0,1,0,2.4,0,1.24,1.24,0,0,0-1.19-1.2A1.22,1.22,0,0,0,25.47,12m2.91,0a1.72,1.72,0,0,1-1.74,1.74A1.74,1.74,0,1,1,28.38,12"/><path class="cls-2" d="M24.1,8.72a1,1,0,0,0-1-1,1,1,0,0,0-.94,1,.89.89,0,0,0,.93.93,1,1,0,0,0,1-.93m-1,1.43a1.42,1.42,0,0,1-1.47-1.44,1.46,1.46,0,0,1,2.92,0,1.43,1.43,0,0,1-1.45,1.45"/><path class="cls-2" d="M22,14.23a1,1,0,0,0-.94-1,1,1,0,0,0-.95.93.9.9,0,0,0,.91,1,1,1,0,0,0,1-.92M21,15.65a1.43,1.43,0,0,1-1.48-1.44,1.46,1.46,0,0,1,2.92,0A1.44,1.44,0,0,1,21,15.65"/><path class="cls-2" d="M29.26,39.24c-.2,0-.37,0-.4-.16s.12-.29.29-.32a16.63,16.63,0,0,0,2.32-.66c.14-.06.3-.08.37.09s0,.32-.2.38a12,12,0,0,1-2.38.67"/><path class="cls-2" d="M32.67,38s-.11,0-.15-.1a.22.22,0,0,1,0-.29,2.65,2.65,0,0,0,1.13-1.42.19.19,0,0,1,.26-.1.34.34,0,0,1,.15.18c.16.46-.87,1.75-1.43,1.73"/><path class="cls-1" d="M15.22,24.65l.62,1.12c.1.17.13.44.38.45s.35-.26.43-.46a19.32,19.32,0,0,0,.93-3.43c0-.17,0-.35-.2-.39s-.27.15-.31.32c-.12.54-.22,1.1-.37,1.64a3.81,3.81,0,0,1-.49,1.39c-.28-.44-.51-.83-.78-1.2s-.44-.3-.6.07A7.68,7.68,0,0,1,13.08,27a.25.25,0,1,0,.36.34,7.73,7.73,0,0,0,.67-.73,12.33,12.33,0,0,0,1.11-2m8.45,11.94c-3.68-.09-7-.83-9.92-3.09a6.75,6.75,0,0,1-3-5.63,7,7,0,0,1,3.1-5.38,14.71,14.71,0,0,1,7.37-2.82A17.47,17.47,0,0,1,31,21.14a10.7,10.7,0,0,1,3.72,2.78,6.11,6.11,0,0,1-.15,8.43,13,13,0,0,1-6.78,3.74,21,21,0,0,1-4.15.5"/><path class="cls-1" d="M24.24,16.89h7.12c.69,0,.71,0,.5.72s-.51,1.62-.75,2.44c-.1.32-.18.47-.59.3a18.57,18.57,0,0,0-12.39-.56c-.45.14-.67.09-.82-.38s-.45-1.16-.68-1.74c-.29-.74-.27-.78.56-.78h7"/><path class="cls-1" d="M23.89,38a28.88,28.88,0,0,1-7.45-.89,5.67,5.67,0,0,1-1.75-.8.91.91,0,0,1-.46-.89c.06-.54.32-.67.81-.43a18.07,18.07,0,0,0,16.84.13c.2-.1.43-.46.69-.09a.73.73,0,0,1,0,1,3,3,0,0,1-1.35.86,17.77,17.77,0,0,1-4.94,1,23.12,23.12,0,0,1-2.38.15"/><path class="cls-1" d="M25.47,12a1.22,1.22,0,0,1,1.21-1.23,1.23,1.23,0,0,1,0,2.46A1.23,1.23,0,0,1,25.47,12"/><path class="cls-1" d="M24.1,8.72a1,1,0,0,1-1,.93.89.89,0,0,1-.93-.93,1,1,0,0,1,.94-1,1,1,0,0,1,1,1"/><path class="cls-1" d="M22,14.23a1,1,0,0,1-1,.92.9.9,0,0,1-.91-1,1,1,0,0,1,.95-.93,1,1,0,0,1,.94,1"/><path class="cls-2" d="M15.22,24.64a12,12,0,0,1-1.11,2,7.73,7.73,0,0,1-.67.73.25.25,0,1,1-.36-.34,7.68,7.68,0,0,0,1.75-2.84c.16-.37.4-.36.6-.07s.5.76.78,1.2a3.81,3.81,0,0,0,.49-1.39c.15-.54.25-1.1.37-1.64,0-.17.09-.36.31-.32s.24.21.2.39a19.32,19.32,0,0,1-.93,3.43c-.08.2-.14.47-.43.46s-.28-.28-.38-.45c-.19-.34-.38-.68-.62-1.13"/></g></g></svg>