<svg xmlns="http://www.w3.org/2000/svg" xmlns:xlink="http://www.w3.org/1999/xlink" viewBox="0 0 99.21 99.21"><defs><style>.cls-1{fill:none;}.cls-2{clip-path:url(#clip-path);}.cls-3{fill:#942100;}.cls-4,.cls-5{fill:#ffba3b;}.cls-5{font-size:27.43px;font-family:HarryP, Harry P;}</style><clipPath id="clip-path" transform="translate(0 0)"><rect class="cls-1" width="99.21" height="99.21"/></clipPath></defs><title>img-LOGO</title><g id="Capa_2" data-name="Capa 2"><g id="Capa_1-2" data-name="Capa 1"><g class="cls-2"><path class="cls-3" d="M49.5,99.21A49.61,49.61,0,1,1,50.31,0c26.84.23,48.93,22.52,48.9,49.77A49.53,49.53,0,0,1,49.5,99.21" transform="translate(0 0)"/><path class="cls-4" d="M72.52,80.56c-.2.09-.33-.15-.47-.27-1.24-1.06-2.41-2.2-3.69-3.21a1.52,1.52,0,0,1-.56-1.28c0-3.29,0-6.57,0-9.85,0-.94-.11-1.07-1-1.26-.65-.13-1.3-.29-2-.41a.45.45,0,0,1-.43-.52c0-.43,0-.87,0-1.3V49.91c0-.87,0-.87.87-.87s1.77,0,2.66,0c.52,0,.57-.28.54-.68s.12-.83-.52-.82H65.83l0-.16,2.53-1.78c.85-.6,1.73-1.15,2.57-1.76.35-.26.54-.17.77.12a5,5,0,0,1,1,3.19q0,11.84,0,23.68c0,3.07,0,6.13,0,9.2,0,.18.1.44-.11.53m-1,.76H68.19a.32.32,0,0,1-.37-.35c0-.92,0-1.84,0-2.76,0-.19.1-.33.3-.17l3.51,3.1Zm-5-2a6.09,6.09,0,0,1-.4,2.07A3.72,3.72,0,0,1,62.93,84c-1.28.18-2.56.42-3.84.58-.71.1-.78,0-.79-.71v-.8A4.85,4.85,0,0,1,55,85.49a4.38,4.38,0,0,1-4.34-2.2,1.39,1.39,0,0,1-.09-.57V77.89c0-.72.11-.82.8-.87.84,0,.9-.1.9-.93,0-1.06,0-2.13,0-3.18,0-.57-.16-.81-.73-.87-1-.09-1-.12-1-1.08,0-1.26,0-2.52,0-3.77a1.38,1.38,0,0,1,.21-.79,4,4,0,0,1,4.4-1.68,4.25,4.25,0,0,1,3,2.43l.14,0c0-.32,0-.62,0-.94s.2-.67.65-.56A28.44,28.44,0,0,1,63.51,67a4.83,4.83,0,0,1,3,4.68c.07,2.57,0,5.15,0,7.72M49.33,61.5c-.07.22-.31.21-.5.24l-13.08,2c-.49.07-.52-.16-.52-.52,0-4.52,0-9,0-13.55,0-.52.21-.63.66-.63h9.49c.5,0,.68.15.67.67,0,1.69,0,3.38,0,5.07,0,.86,0,.88.9.88h.23c1.11,0,1.11,0,1.21,1.1,0,.52.43.87.68,1.28.4.69.39.75-.37.9-.43.08-.69.32-.66.76a.72.72,0,0,0,.75.69c.61,0,1.22,0,1.82,0,.19,0,.46-.07.47.21s-.29.25-.48.25c-.52,0-1,0-1.25.64m.45,25.1c0,.7,0,.72-.72.61l-9.71-1.47-5.87-.89c-.87-.12-.87-.11-.87-1,0-5.77,0-11.55,0-17.32,0-.57.12-.81.74-.9C38,65,42.59,64.28,47.2,63.58c.6-.09,1.19-.2,1.79-.3s.79-.07.79.64V75.29h0V86.6M30.94,65.53c0,3.52,0,7,0,10.55a1.52,1.52,0,0,1-.58,1.31c-1.23,1.06-2.44,2.15-3.72,3.17-.21-.2-.12-.43-.12-.62V54c0-2.32,0-4.64,0-7a5,5,0,0,1,1-3c.23-.31.42-.42.8-.15,1.56,1.12,3.15,2.2,4.73,3.29a3.73,3.73,0,0,1,.34.35c-.81,0-1.48,0-2.11,0s-.61.35-.62.79.08.74.64.72c.78,0,1.57,0,2.35,0,.4,0,.55.15.55.56q0,6.93,0,13.85c0,.39-.14.56-.54.6s-1.08.15-1.63.23c-.87.13-1.11.38-1.11,1.27m0,15.44c0,.3-.19.35-.43.35h-2.7c-.11,0-.27,0-.3-.12s.07-.18.14-.24l2.94-2.61c.21-.19.35-.15.35.16Zm20-21.24c-.6,0-1.21,0-1.82,0h0a1,1,0,0,0,.84-1.1,1.29,1.29,0,0,1,.38-.84,1.94,1.94,0,0,0,.45-1.47c-.07-.47.18-.65.61-.66s.74,0,1.12,0c.55,0,.76-.16.75-.74,0-1.74,0-3.49,0-5.24,0-.48.14-.65.63-.65,2.94,0,5.89,0,8.83,0,.53,0,.65.19.65.69,0,4.52,0,9,0,13.55,0,.74,0,.74-.71.6l-9.69-1.93-1.77-.32c.26-.27.51-.42.61-.72a.92.92,0,0,0-.85-1.16m-21.66-17a4.93,4.93,0,0,1,1.9-.35h18.5q9.21,0,18.43,0a4.84,4.84,0,0,1,2,.38c.35.15.36.32,0,.53l-5.89,4.09a1.09,1.09,0,0,1-.68.15H53.82c-.44,0-.6-.13-.58-.57,0-.76,0-1.53,0-2.3,0-.41-.17-.56-.56-.56H46.62c-.44,0-.59.18-.59.6,0,.79,0,1.57,0,2.36,0,.35-.12.48-.48.48H35.49a2.28,2.28,0,0,1-1.29-.65c-1.69-1.14-3.35-2.31-5-3.47-.14-.1-.38-.17-.36-.36s.27-.25.45-.33m47.5,39.63c0-1,0-1-1.07-1-1.23,0-1.1.15-1.1-1.09q0-16.65,0-33.29a6.48,6.48,0,0,0-1-3.74A6.23,6.23,0,0,0,68,40.4c-6.11,0-12.22,0-18.33,0h0c-6.18,0-12.37,0-18.55,0h-.23a6.33,6.33,0,0,0-6.2,6.45c0,4,0,7.93,0,11.9q0,10.92,0,21.86c0,.55-.13.81-.72.73-.25,0-.51,0-.76,0-.58-.07-.8.12-.78.74.05,1.28,0,2.55,0,3.83,0,.78,0,.78.8.78H34.08a6.7,6.7,0,0,1,1,0c4.54.69,9.07,1.39,13.61,2.07A6.36,6.36,0,0,0,50.9,89c2.67-.53,5.35-1,8-1.59a30.77,30.77,0,0,1,7.17-.77c3.34.09,6.68,0,10,0,.51,0,.69-.14.67-.66,0-1.22,0-2.44,0-3.66" transform="translate(0 0)"/><polygon class="cls-4" points="58.3 83.11 58.3 83.11 58.3 83.11 58.3 83.11"/><path class="cls-4" d="M53.77,46.16a1.77,1.77,0,0,0,0,.46c0,.13,0,.3.14.35s.26,0,.36-.14a1,1,0,0,0,.27-.59c0-.33-.16-.71-.54-.72s-.18.41-.23.64" transform="translate(0 0)"/><path class="cls-4" d="M45.31,46.91c.39,0,.16-.48.25-.75-.11-.22.13-.64-.25-.66s-.54.36-.54.71.15.75.54.7" transform="translate(0 0)"/><path class="cls-4" d="M57.15,74.86a.57.57,0,0,1,.11-.91,1.94,1.94,0,0,0,.68-1.39,13,13,0,0,0-.1-3.93c-.39-2-1.7-3.13-3.45-3A2.31,2.31,0,0,0,52.23,68V70.2c0,1.17,0,1.15,1.14,1.18.55,0,.69-.21.68-.69a2.64,2.64,0,0,1,.2-1.27.79.79,0,0,1,.7-.54.76.76,0,0,1,.72.51,3.64,3.64,0,0,1,.3,2.18c-.17,1.07-.48,1.35-1.6,1.51-.34,0-.36.24-.36.49,0,.66,0,1.33,0,2,0,.37.12.53.51.52a1.14,1.14,0,0,1,1.14.69,4.45,4.45,0,0,1,.08,3.54.78.78,0,0,1-.8.58c-.41,0-.61-.32-.73-.68a4.28,4.28,0,0,1-.16-1.51c0-1,0-1-1-1h-.18c-.43,0-.64.15-.62.62,0,.67,0,1.33,0,2s0,1.34,0,2a1.32,1.32,0,0,0,.08.52,3.26,3.26,0,0,0,3.19,1.55,2.88,2.88,0,0,0,2.1-2,11.5,11.5,0,0,0,.48-4.48,5,5,0,0,0-.93-3" transform="translate(0 0)"/><path class="cls-4" d="M63.65,78.91A1.41,1.41,0,0,1,63,80.28c-.63.33-1,.11-1-.6v-4.3c0-1.43,0-2.87,0-4.3,0-.68.33-.85.95-.55a1.41,1.41,0,0,1,.75,1.38q0,3.51,0,7m2-3.45c0-1.27,0-2.55,0-3.82A4,4,0,0,0,63.54,68a18.68,18.68,0,0,0-3.73-1.21c-.18,0-.35,0-.35.18a8,8,0,0,0,.08,2.39,7,7,0,0,1,.36,2.12v7.6a3.24,3.24,0,0,1-.37,1.75.92.92,0,0,0-.08.4c0,.6,0,1.21,0,1.82,0,.43.19.5.55.44.73-.13,1.46-.27,2.2-.35,2.87-.31,3.32-2,3.42-4.08.06-1.19,0-2.39,0-3.59Z" transform="translate(0 0)"/><path class="cls-4" d="M47.66,79.35a9.44,9.44,0,0,1-.46,3.12c-.49,1.37-1,1.75-2.45,1.67-1,0-2-.17-3-.25-.43,0-.66-.21-.63-.7s0-1.18,0-1.77A1,1,0,0,1,41.2,81a3.84,3.84,0,0,0,.39-2.28V70.79a3.78,3.78,0,0,0-.31-1.48,6,6,0,0,1-.13-2.15c0-.88,0-.9.86-1,1-.18,2.08-.34,3.13-.48a2.09,2.09,0,0,1,2.12,1.52,7.82,7.82,0,0,1,.4,2.49c0,1.69,0,3.38,0,5.06h0c0,1.55,0,3.1,0,4.65m-8.29,2.43c-.45,1.73-1.72,2.06-3.43,1.47a4.63,4.63,0,0,1-1.19-.74,2,2,0,0,1-1-2,15.14,15.14,0,0,0,0-2.13c0-.34.09-.53.46-.49a.06.06,0,0,0,.06,0,3.71,3.71,0,0,1,1.34.06c.48.21.15.8.26,1.22.17.71.45,1.11.87,1.09s.66-.46.68-1.21c.05-1.56-.21-2-1.66-2.6a3,3,0,0,1-2-2.72,8.18,8.18,0,0,1,.42-4,4,4,0,0,1,3.4-2.43A2.57,2.57,0,0,1,39.2,68a.63.63,0,0,1,.22.57V70h0c0,.41,0,.82,0,1.23s-.14.69-.59.71l-.12,0c-.37,0-.79.2-1.09.07s-.1-.64-.22-1-.19-.75-.68-.75-.61.35-.74.72a1.86,1.86,0,0,0,1.33,2.38,2.79,2.79,0,0,1,2.22,2.38,12.82,12.82,0,0,1-.17,5.94m9.38-15.15A2.82,2.82,0,0,0,46,64.75a42.93,42.93,0,0,0-4.36.68c-1,.21-1.07.38-1.07,1.36,0,.11,0,.23,0,.35s.06.35-.12.42-.23-.11-.34-.18a3.78,3.78,0,0,0-1.62-.79A4.74,4.74,0,0,0,33.88,69a8,8,0,0,0-.72,5,3.33,3.33,0,0,0,2,3,.64.64,0,0,1,.41.34,5.48,5.48,0,0,1-1.44.08c-1,0-1,0-1,.94a23.21,23.21,0,0,1,0,2.36,2.75,2.75,0,0,0,1.27,2.61,6.68,6.68,0,0,0,1.84,1,3,3,0,0,0,4-1.69c0-.11,0-.29.29-.28a7.47,7.47,0,0,1,0,1.16c-.1.66.29,1,.79,1.2a2.27,2.27,0,0,0,.63.12l3.93.31a2.52,2.52,0,0,0,2.6-1.55,7.88,7.88,0,0,0,.75-3.3c.13-3.36.05-6.71.05-10.07a9.62,9.62,0,0,0-.53-3.53" transform="translate(0 0)"/><path class="cls-4" d="M44.2,69.4c-.42.07-.33.43-.33.7V75c0,1.67,0,3.34,0,5,0,.25-.1.59.29.67a.83.83,0,0,0,1-.37,2,2,0,0,0,.24-1.07V70.69a1.67,1.67,0,0,0-.17-.85.89.89,0,0,0-1-.44" transform="translate(0 0)"/></g><text class="cls-5" transform="translate(12.5 35.34)">HogwArts</text></g></g></svg>