<svg xmlns="http://www.w3.org/2000/svg" viewBox="0 0 47.48 47.46"><defs><style>.cls-1{fill:#ffba3b;}.cls-2{fill:#942100;}</style></defs><title>img-btn-productos</title><g id="Capa_2" data-name="Capa 2"><g id="Capa_1-2" data-name="Capa 1"><path class="cls-1" d="M35.14,13.94c.37-.18.8-.39,1.21-.61a.19.19,0,0,0,0-.28.24.24,0,0,0-.32-.1c-.38.16-.76.33-1.13.51a.24.24,0,0,0-.12.32c0,.11.14.14.32.16m-.8.13c-.11-.31-.33-.22-.54-.13A16.12,16.12,0,0,0,31.69,15a11,11,0,0,0-1.89,1.52c-.12.12-.25.25-.12.43s.3.11.43,0a12,12,0,0,1,3.94-2.57c.14-.06.27-.12.29-.31M21.05,27.7c-.2-1.06-.35-2-.57-3-1.06-4.68-3.33-8.39-8.11-10.11a11.51,11.51,0,0,1-5.93-4.16c-.08-.12-.18-.26-.35-.21s-.18.21-.19.36a5.24,5.24,0,0,0,0,.56,30.89,30.89,0,0,0,.77,6.36C7.21,20,8.32,22,10.84,23A15.35,15.35,0,0,1,18,29.12a.82.82,0,0,1,0,1.13,7,7,0,0,0-1.11,5.94A7.25,7.25,0,0,0,23,41.67a7.35,7.35,0,0,0,7.19-3.43,7.22,7.22,0,0,0-.42-8.2.6.6,0,0,1-.05-.82c1.8-2.69,3.92-5,7-6.23a8.1,8.1,0,0,0,.78-.39,5.73,5.73,0,0,0,2.78-3.07,22.2,22.2,0,0,0,1.32-6.64c.06-.7.07-1.41.08-2.12,0-.21,0-.52-.22-.61s-.36.22-.5.38c-.33.37-.63.77-1,1.14a12.06,12.06,0,0,1-4.71,2.84,11.86,11.86,0,0,0-7.39,7.68,25.74,25.74,0,0,0-1.14,4.91c0,.25.05.6-.43.43a7.29,7.29,0,0,0-5.26.16m2.7,19.76A23.73,23.73,0,1,1,47.48,24.11,23.74,23.74,0,0,1,23.75,47.46"/><path class="cls-2" d="M41.15,11.21a19.68,19.68,0,0,1-1.68,1.65,16.46,16.46,0,0,1-4.28,2.28A10.91,10.91,0,0,0,29,20.81a24.25,24.25,0,0,0-1.68,5.78c-.16.87-.15,1.54.8,1.89a.67.67,0,0,1,.14.11c.79.59.78.59,1.33-.2a15.87,15.87,0,0,1,5.23-5.08c1-.55,1-.55.19-1.38l-.09-.09c-.14-.13-.3-.28-.14-.47s.33-.05.48.08c.3.28.62.54.91.84s.4.24.6.06-.06-.34-.17-.47-.47-.41-.67-.64-.58-.34-.32-.63.46.09.64.24c.37.31.71.64,1.06,1,.19.17.35.08.49-.05s0-.28-.12-.38c-.35-.34-.73-.67-1.09-1-.12-.11-.28-.23-.14-.41s.33-.1.47,0c.37.33.76.65,1.1,1s.5.26.75,0a5.66,5.66,0,0,0,1-1.59,24.73,24.73,0,0,0,1.39-8.18m-34.73.14a26.82,26.82,0,0,0,1,7A6.44,6.44,0,0,0,8.91,21.1c.21.22.36.25.59,0,.38-.39.79-.74,1.19-1.11.13-.12.28-.21.43-.06s0,.31-.08.42c-.35.33-.71.65-1,1-.11.12-.46.19-.21.46s.43.16.64-.06.68-.67,1-1c.14-.13.29-.38.52-.16s0,.37-.15.51-.52.47-.76.74-.48.24-.25.51.48.08.69-.12.54-.52.82-.77.29-.3.47-.09,0,.34-.11.47l-1,.95a13,13,0,0,1,3.81,2.55,25,25,0,0,1,2.91,3.58c.1.14.14.4.46.2,1.61-1,1.66-1,1.33-2.94A17.51,17.51,0,0,0,17.55,19,11.42,11.42,0,0,0,12,15,13.94,13.94,0,0,1,7.8,12.66c-.43-.38-.84-.8-1.38-1.31M23.89,27.67a6.77,6.77,0,1,0,6.78,6.77,6.73,6.73,0,0,0-6.78-6.77m-2.84,0a7.29,7.29,0,0,1,5.26-.16c.48.16.4-.18.43-.43a25,25,0,0,1,1.14-4.91,11.86,11.86,0,0,1,7.39-7.68A12.06,12.06,0,0,0,40,11.68c.34-.37.64-.77,1-1.14.14-.16.23-.48.5-.38s.22.4.22.61c0,.71,0,1.42-.08,2.12a22.2,22.2,0,0,1-1.32,6.64,5.73,5.73,0,0,1-2.78,3.07,8.1,8.1,0,0,1-.78.39c-3.11,1.21-5.23,3.54-7,6.23a.6.6,0,0,0,.05.82,7.21,7.21,0,0,1,.42,8.19A7.34,7.34,0,0,1,23,41.67a7.25,7.25,0,0,1-6.12-5.48A7,7,0,0,1,18,30.25a.82.82,0,0,0,0-1.13A15.35,15.35,0,0,0,10.84,23c-2.52-1-3.63-3-4.19-5.5a30.22,30.22,0,0,1-.77-6.36,5.24,5.24,0,0,1,0-.56c0-.15,0-.31.19-.36s.27.09.35.21a11.51,11.51,0,0,0,5.93,4.16c4.78,1.72,7.05,5.43,8.11,10.11.22,1,.37,2,.57,3"/><path class="cls-2" d="M34.34,14.07c0,.19-.15.25-.29.31A12,12,0,0,0,30.11,17c-.13.13-.29.2-.43,0s0-.31.12-.43A11,11,0,0,1,31.69,15a16.12,16.12,0,0,1,2.11-1.08c.21-.09.43-.18.54.13"/><path class="cls-2" d="M35.14,13.94c-.18,0-.28,0-.32-.16a.24.24,0,0,1,.12-.32c.37-.18.75-.35,1.13-.51a.24.24,0,0,1,.32.1.19.19,0,0,1,0,.28l-1.21.61"/><path class="cls-1" d="M20.62,33.15c.07,0,.12,0,.14,0l1,.75c.42.33.6.28.63-.23a15,15,0,0,0-.52-3.87c0-.17-.13-.27-.3-.23s-.21.19-.18.35.14.6.18.91a11.1,11.1,0,0,1,.29,2.44c-.45-.31-.79-.58-1.16-.8s-.66-.16-.66.36a7.63,7.63,0,0,1-.5,3.24c-.06.14-.07.29.1.37s.28,0,.36-.15a3.1,3.1,0,0,0,.36-1.06c.1-.69.17-1.39.26-2.08m3.27-5.48a6.77,6.77,0,0,1,.05,13.54,6.77,6.77,0,1,1-.05-13.54"/><path class="cls-1" d="M6.42,11.35c.54.51,1,.93,1.38,1.31A13.94,13.94,0,0,0,12,15a11.47,11.47,0,0,1,5.52,4,17.51,17.51,0,0,1,2.69,7.18c.33,1.91.28,1.93-1.34,2.94-.31.2-.35-.06-.45-.2a25,25,0,0,0-2.91-3.58,13,13,0,0,0-3.81-2.55l1-.95c.14-.13.28-.29.11-.48s-.33,0-.47.1-.56.5-.82.77-.45.39-.69.12.12-.37.25-.51.51-.49.76-.74.38-.29.15-.51-.38,0-.52.16c-.35.32-.7.65-1,1s-.42.29-.64.06.1-.34.21-.46c.33-.34.69-.66,1-1,.12-.11.24-.26.08-.42s-.3-.06-.43.06c-.4.37-.81.72-1.19,1.11-.23.24-.38.21-.6,0a6.53,6.53,0,0,1-1.45-2.72,26.82,26.82,0,0,1-1-7"/><path class="cls-1" d="M41.15,11.21a24.73,24.73,0,0,1-1.39,8.18,5.66,5.66,0,0,1-1,1.59c-.25.29-.45.35-.75,0s-.73-.68-1.09-1c-.15-.14-.32-.25-.48,0s0,.3.14.41c.36.35.74.68,1.09,1,.1.1.34.19.12.38s-.3.22-.49.05c-.35-.33-.69-.66-1.06-1-.18-.15-.36-.56-.64-.24s.15.45.32.63.46.41.67.64.45.21.17.47-.4.14-.6-.06-.61-.56-.91-.84c-.14-.13-.3-.29-.48-.08s0,.34.14.47l.09.09c.84.83.84.83-.19,1.38a15.75,15.75,0,0,0-5.22,5.08c-.56.79-.55.79-1.34.2a.49.49,0,0,0-.14-.11c-.95-.35-1-1-.8-1.89A24.25,24.25,0,0,1,29,20.81a10.91,10.91,0,0,1,6.17-5.67,16.46,16.46,0,0,0,4.28-2.28,19.68,19.68,0,0,0,1.68-1.65"/><path class="cls-2" d="M20.62,33.15c-.09.69-.16,1.39-.26,2.08A3.1,3.1,0,0,1,20,36.29c-.08.13-.19.23-.36.15s-.16-.23-.1-.37a7.48,7.48,0,0,0,.5-3.24c0-.52.2-.63.66-.36s.71.49,1.16.8a10.53,10.53,0,0,0-.29-2.44c0-.31-.12-.61-.18-.91s0-.31.18-.35.27.06.31.23a15.4,15.4,0,0,1,.51,3.87c0,.51-.21.56-.63.23l-1-.75s-.08,0-.15,0"/></g></g></svg>