<svg xmlns="http://www.w3.org/2000/svg" viewBox="0 0 47.48 47.46"><defs><style>.cls-1{fill:#942100;}.cls-2{fill:#ffba3b;}</style></defs><title>img-btn-contacto</title><g id="Capa_2" data-name="Capa 2"><g id="Capa_1-2" data-name="Capa 1"><path class="cls-1" d="M36.28,12.91c.28-.16.84.22.84-.29s-.54-.22-.83-.22-.82-.21-.82.23.53.14.81.28m-3,0h1.12c.15,0,.31,0,.32-.21a.25.25,0,0,0-.27-.28h-2.3a.26.26,0,0,0-.29.26c0,.2.16.22.3.23H33.3m-9.62.61H10.51a3.21,3.21,0,0,0-3.37,3.37V30.59A3.22,3.22,0,0,0,10.51,34H36.72a3.23,3.23,0,0,0,3.4-3.41V16.89a3.2,3.2,0,0,0-3.4-3.4h-13M23.81,0A23.73,23.73,0,1,1,0,23.41,23.68,23.68,0,0,1,23.81,0"/><path class="cls-2" d="M23.55,20.49A3.49,3.49,0,1,0,27,24a3.5,3.5,0,0,0-3.44-3.55m.09-6.5H10.72a3.18,3.18,0,0,0-2,.59.65.65,0,0,0-.26.85,4.45,4.45,0,0,0,3.44,2.94.89.89,0,0,1,.68.36A4.65,4.65,0,0,0,17,21a.74.74,0,0,1,.69.31,4.77,4.77,0,0,0,1.55,1.23c.31.15.46.11.62-.22a4,4,0,0,1,7.31.13c.12.28.23.32.51.21a4.25,4.25,0,0,0,1.76-1.25,1,1,0,0,1,.95-.41,4.54,4.54,0,0,0,4.12-2,1.38,1.38,0,0,1,.94-.61,4.43,4.43,0,0,0,3.3-2.83.73.73,0,0,0-.32-1A3.26,3.26,0,0,0,36.56,14H23.64M7.94,15.6a2.34,2.34,0,0,0-.3,1.19c0,4.62,0,9.24,0,13.86a2.71,2.71,0,0,0,2.8,2.81H36.8a2.72,2.72,0,0,0,2.81-2.8c0-4.62,0-9.24,0-13.86a2,2,0,0,0-.3-1.17,5.07,5.07,0,0,1-3.91,3.25c-.25.06-.35.27-.49.45a5,5,0,0,1-4.16,2.14,1.27,1.27,0,0,0-1.11.49A3.79,3.79,0,0,1,28,23.06a.63.63,0,0,0-.5.76,3.75,3.75,0,0,1-1.63,3.39,3.81,3.81,0,0,1-4.19.32,3.76,3.76,0,0,1-2.15-3.6c0-.55-.09-.86-.64-1.06a3.22,3.22,0,0,1-1.34-1,1,1,0,0,0-.91-.4,5,5,0,0,1-4.32-2.19c-.12-.17-.22-.35-.45-.39A5.11,5.11,0,0,1,7.94,15.6m15.74-2.11h13a3.2,3.2,0,0,1,3.4,3.4V30.56a3.22,3.22,0,0,1-3.4,3.4H10.51a3.22,3.22,0,0,1-3.37-3.37V16.86a3.21,3.21,0,0,1,3.37-3.37H23.68"/><path class="cls-2" d="M33.3,12.88H32.18c-.14,0-.3,0-.3-.22a.26.26,0,0,1,.29-.26h2.3a.25.25,0,0,1,.27.28c0,.2-.17.2-.32.21H33.3"/><path class="cls-2" d="M36.28,12.9c-.28-.13-.81.2-.81-.27s.53-.24.82-.23.83-.21.83.21-.56.14-.84.29"/><path class="cls-1" d="M7.94,15.6a5.11,5.11,0,0,0,3.92,3.29c.23,0,.33.22.45.39a5,5,0,0,0,4.32,2.19,1,1,0,0,1,.91.4,3.22,3.22,0,0,0,1.34,1c.55.2.66.51.64,1.06a3.76,3.76,0,0,0,2.15,3.6,3.81,3.81,0,0,0,4.19-.32,3.75,3.75,0,0,0,1.63-3.39.63.63,0,0,1,.5-.76A3.79,3.79,0,0,0,29.64,22a1.27,1.27,0,0,1,1.11-.49,5,5,0,0,0,4.16-2.14c.14-.18.24-.39.49-.45a5.07,5.07,0,0,0,3.91-3.25,2,2,0,0,1,.3,1.17c0,4.62,0,9.24,0,13.86a2.72,2.72,0,0,1-2.81,2.8H10.45a2.71,2.71,0,0,1-2.8-2.81c0-4.62,0-9.24,0-13.86a2.34,2.34,0,0,1,.3-1.19"/><path class="cls-1" d="M23.64,14H36.56a3.26,3.26,0,0,1,1.89.52.73.73,0,0,1,.33,1,4.44,4.44,0,0,1-3.31,2.83,1.38,1.38,0,0,0-.94.61,4.53,4.53,0,0,1-4.12,2,1,1,0,0,0-.95.41,4.25,4.25,0,0,1-1.76,1.25c-.28.11-.39.07-.51-.21A3.82,3.82,0,0,0,23.64,20a3.83,3.83,0,0,0-3.76,2.29c-.16.33-.31.37-.62.22a4.77,4.77,0,0,1-1.55-1.23A.74.74,0,0,0,17,21a4.65,4.65,0,0,1-4.44-2.24.89.89,0,0,0-.68-.36,4.45,4.45,0,0,1-3.44-2.94.65.65,0,0,1,.26-.85,3.18,3.18,0,0,1,2-.59H23.64"/><path class="cls-1" d="M23.88,23.65a.33.33,0,0,1-.32,0c-.2-.05-.42-.15-.59,0s0,.42,0,.63a5.94,5.94,0,0,1,.35,1.44c0,.18-.09.48.24.46s.28-.32.25-.54c-.06-.47-.17-.94-.27-1.46a3,3,0,0,0,.35.09c.21,0,.43.27.63.05s0-.48-.07-.69c-.29-.55-.6-1.08-.92-1.62-.09-.15-.2-.36-.43-.22s-.1.32,0,.48a7,7,0,0,1,.74,1.34m-.33-3.16A3.49,3.49,0,1,1,20,23.94a3.5,3.5,0,0,1,3.53-3.45"/><path class="cls-2" d="M23.87,23.65a6.46,6.46,0,0,0-.73-1.34c-.1-.16-.23-.34,0-.48s.34.07.43.22c.32.53.63,1.07.92,1.62.11.21.27.47.07.69s-.42,0-.63-.05a2.59,2.59,0,0,1-.35-.09c.1.51.21,1,.27,1.46,0,.22.06.52-.26.54s-.21-.28-.23-.46A5.83,5.83,0,0,0,23,24.32c-.07-.21-.26-.43,0-.63s.39-.07.59,0a.31.31,0,0,0,.31,0"/></g></g></svg>