<svg xmlns="http://www.w3.org/2000/svg" viewBox="0 0 47.48 47.46"><defs><style>.cls-1{fill:#ffba3b;}.cls-2{fill:#942100;}</style></defs><title>img-btn-pelis</title><g id="Capa_2" data-name="Capa 2"><g id="Capa_1-2" data-name="Capa 1"><path class="cls-1" d="M23.49,12.54c-.2.11-.35,0-.5-.06a14.55,14.55,0,0,0-2.83-.74c-.43-.05-.63.09-.44.57a14.43,14.43,0,0,1,1.4,6.4c0,.16,0,.3.22.31s.25-.11.28-.27a5.7,5.7,0,0,0,0-1.24,17.26,17.26,0,0,0-1.16-4.64c-.06-.15-.21-.32-.09-.46s.36-.06.53,0c.69.2,1.38.43,2.09.62.36.09.77.51,1.07.18s0-.79-.2-1.15A38.7,38.7,0,0,0,20.66,6.3a1,1,0,0,0-.15-.2.23.23,0,0,0-.38.24,3.55,3.55,0,0,0,.23.43,46.14,46.14,0,0,1,2.8,4.87,2.23,2.23,0,0,1,.33.9M6.63,27.35v1.06c0,.23,0,.49.28.5.49,0,.5.37.59.7A7.53,7.53,0,0,0,18,34.52a7.33,7.33,0,0,0,4.32-5.94c0-.28-.08-.67.28-.83a2.51,2.51,0,0,1,2.06-.06c.59.23.34.74.4,1.13a7.62,7.62,0,0,0,6.87,6.38,7.53,7.53,0,0,0,7.89-5.57c.08-.32.06-.71.59-.72.24,0,.3-.31.3-.55,0-.67,0-1.33,0-2,0-.3-.13-.63-.43-.57-.47.09-.5-.2-.59-.49A7.53,7.53,0,0,0,25,26.81c-.05.4-.18.42-.5.31a2.26,2.26,0,0,0-1.6,0c-.54.23-.61,0-.67-.47a7.52,7.52,0,0,0-10.09-6,7.41,7.41,0,0,0-4.54,4.74c-.06.17,0,.52-.37.44s-.62.2-.61.62v.93M23.74,0A23.73,23.73,0,1,1,0,23.35,23.74,23.74,0,0,1,23.74,0"/><path class="cls-2" d="M14.77,20.67a7,7,0,1,0,7,7,7,7,0,0,0-7-7m17.8,0a7,7,0,1,0,6.94,7.1,7,7,0,0,0-6.94-7.1M6.63,27.35v-.93c0-.42.11-.72.61-.62s.31-.27.37-.44a7.41,7.41,0,0,1,4.54-4.74,7.52,7.52,0,0,1,10.09,6c.06.45.13.7.67.47a2.26,2.26,0,0,1,1.6,0c.32.11.45.09.5-.31A7.53,7.53,0,0,1,39.64,25.3c.09.29.12.58.59.49.3-.06.43.27.43.57,0,.67,0,1.33,0,2,0,.24-.06.55-.3.55-.53,0-.51.4-.59.72a7.53,7.53,0,0,1-7.89,5.57A7.62,7.62,0,0,1,25,28.82c-.06-.39.19-.9-.4-1.13a2.51,2.51,0,0,0-2.06.06c-.36.16-.24.55-.28.83A7.33,7.33,0,0,1,18,34.52,7.53,7.53,0,0,1,7.5,29.61c-.09-.33-.1-.68-.59-.7-.23,0-.28-.27-.28-.5V27.35"/><path class="cls-2" d="M23.49,12.54a2.32,2.32,0,0,0-.33-.91,46,46,0,0,0-2.8-4.86,2.55,2.55,0,0,1-.23-.43.23.23,0,0,1,.38-.24,1,1,0,0,1,.15.2,38.7,38.7,0,0,1,3.24,5.75c.16.36.49.83.2,1.15S23.39,13.11,23,13c-.71-.19-1.4-.42-2.09-.62-.18-.05-.39-.16-.53,0s0,.31.08.46a16.82,16.82,0,0,1,1.17,4.64,5.72,5.72,0,0,1,0,1.24c0,.16-.09.29-.28.27s-.23-.15-.22-.31a14.43,14.43,0,0,0-1.4-6.4c-.19-.49,0-.62.44-.57a14.55,14.55,0,0,1,2.83.74c.15,0,.3.17.5.06"/><path class="cls-1" d="M32.57,20.67a7,7,0,1,1-7.11,6.92,7,7,0,0,1,7.11-6.92"/><path class="cls-1" d="M9.24,27.13c0-.13,0-.22,0-.3s.13-.45-.19-.48-.27.25-.31.44a.71.71,0,0,0,0,.25c.06.29-.26.8.2.83s.18-.52.29-.74m4.87-5.27c-.07-.16-.21-.17-.39-.16a6.19,6.19,0,0,0-4.56,3.67c-.05.16-.12.35.08.44s.32-.09.4-.26a5.55,5.55,0,0,1,4.14-3.35c.17,0,.33-.08.33-.34m.66-1.19a7,7,0,0,1,0,14,7,7,0,1,1,0-14"/><path class="cls-2" d="M14.11,21.86c0,.26-.16.31-.33.34a5.55,5.55,0,0,0-4.14,3.35c-.08.17-.17.37-.4.26s-.13-.28-.08-.44a6.19,6.19,0,0,1,4.56-3.67c.18,0,.32,0,.39.16"/><path class="cls-2" d="M9.24,27.13c-.11.22.19.77-.29.74s-.14-.54-.2-.83a.71.71,0,0,1,0-.25c0-.19,0-.46.31-.44s.21.28.19.48,0,.17,0,.3"/></g></g></svg>