<svg xmlns="http://www.w3.org/2000/svg" viewBox="0 0 42.52 40.12"><defs><style>.cls-1{fill:#0fad2f;}.cls-2{fill:#fcfdfc;}</style></defs><title>img1Wpp</title><g id="Capa_2" data-name="Capa 2"><g id="Capa_1-2" data-name="Capa 1"><path class="cls-1" d="M37.77,8.76c-.12.35.37.55.22.92-.38.06-.5-.42-.83-.43a.51.51,0,0,0,.05.66,4.71,4.71,0,0,1,1.21,2.63c0,.33.43.53.75.65.15.06.39-.08.49,0,.46.37,1.22-.28,1.45.28a7.48,7.48,0,0,1,.28,2c0,.13-.08.31,0,.37.57.65.86,1.21-.07,1.87-.31.22-.08.68.43.73.26,0,.66-.32.76.14a1.24,1.24,0,0,1-.22,1A4.49,4.49,0,0,0,41,22.33a5.59,5.59,0,0,1-.55,1.31c-.18.46-.49.86.31,1.14.48.18.34.69.06,1.08A21.22,21.22,0,0,1,39.13,28c-.22.25-.67.58.1.72.38.07.16.27.07.42s-.33.48-.49.73-.53.55-.25.87.39-.44.81-.12a1.1,1.1,0,0,1-.37.77c-1,1-1.88,2.21-3.31,2.77a2.88,2.88,0,0,0-1.1,1c-3,4-7.28,5.06-12,4.92,1.39-.46,2.87-.62,4.28-1.12-.18-.4-.51-.27-.77-.25a45.52,45.52,0,0,1-6.81-.06,16.46,16.46,0,0,1-4.92-1.15c-1.31-.51-2.51-1.26-3.83-1.76A11.22,11.22,0,0,1,7.1,33.3a19.36,19.36,0,0,1-3.31-3.52,25,25,0,0,1-2-4.48,18.75,18.75,0,0,1-.87-6c-.05-.69.35-1.43-.24-2.07-.32.2-.1.6-.46.85A2.42,2.42,0,0,1,.14,16.3c.46-1.14.53-2.41,1.37-3.45a2,2,0,0,0,.09-2.56c-.1-.13,0-.54.13-.46.53.42.53-.07.61-.32,1.12-3.74,3.92-6,7.09-7.87a1.48,1.48,0,0,1,.46-.16,1.27,1.27,0,0,1,.35.08c-.31.67-1,.9-1.46,1.3C8,3.52,7,4,6.53,5c-.67,0-.73.56-.92,1a1.51,1.51,0,0,0,.94-1c.84-.25,1.37-1,2.13-1.36C12.62,1.76,16.5-.22,21.15,0a33,33,0,0,1,7.48,1,14.64,14.64,0,0,1,4.89,2,21.28,21.28,0,0,1,4.16,3.77A14.67,14.67,0,0,1,39,8.38a1,1,0,0,1,.16.92c-.55,0-.62-.83-1.24-.67,0-.18,0-.32-.26-.34a.16.16,0,0,0-.17.18C37.45,8.68,37.59,8.75,37.77,8.76ZM8.42,31.25c1.5-.34,2.81-.66,4.13-.93s2.53-1,3.83-.15a6,6,0,0,0,2.05.68,13.86,13.86,0,0,0,12.48-3A11.08,11.08,0,0,0,34,14.3c-2.35-4.84-6.61-7.06-11.84-7.36a13.43,13.43,0,0,0-8.94,2.82A12.08,12.08,0,0,0,8.45,17.9,10.72,10.72,0,0,0,9.9,24.62a1.61,1.61,0,0,1,.22,1.31C9.6,27.64,9,29.33,8.42,31.25ZM33.49,4.76c.37.56,1,.85.38,1.63-.37.41.46.66.69,1a.73.73,0,0,0,.88.3c.31-.13.2-.37.09-.58-.25-.5-.7-.91-.71-1.5C34.81,4.76,34.32,4.6,33.49,4.76ZM27,1.65a1.32,1.32,0,0,0-1.21,0A1.27,1.27,0,0,0,27,1.65Zm4,2.94c-.16-.13-.22-.21-.3-.24s-.48-.15-.42.16S30.62,4.69,31,4.59ZM3.32,26.29c0-.07-.07-.21-.15-.26s-.17.06-.16.16a.4.4,0,0,0,.1.25C3.19,26.51,3.27,26.44,3.32,26.29ZM1,16c-.06.24-.17.42,0,.64A.62.62,0,0,0,1,16ZM27.92,2l-.29,0s0,.05-.06.08l.17,0A.83.83,0,0,0,27.92,2Zm10,28.6a.46.46,0,0,0,.07-.14.11.11,0,0,0,0-.08c0-.07-.08-.05-.09,0A1.35,1.35,0,0,0,37.93,30.56ZM9.63,33.62a.65.65,0,0,0-.17-.08.64.64,0,0,0-.18.06c.06,0,.11.08.17.08A.64.64,0,0,0,9.63,33.62Zm18.39,5a.34.34,0,0,0-.33-.21c-.14,0-.29.06-.29.19s.15.19.29.16A2.33,2.33,0,0,0,28,38.62ZM37,8.85c0-.1-.09-.15-.2-.11s-.11.08-.07.16.09.18.2.11S37,8.91,37,8.85Z"/><path class="cls-2" d="M8.42,31.25c.61-1.92,1.18-3.61,1.7-5.32a1.61,1.61,0,0,0-.22-1.31A10.72,10.72,0,0,1,8.45,17.9a12.08,12.08,0,0,1,4.79-8.14,13.43,13.43,0,0,1,8.94-2.82c5.23.3,9.49,2.52,11.84,7.36a11.08,11.08,0,0,1-3.11,13.6,13.86,13.86,0,0,1-12.48,3,6,6,0,0,1-2.05-.68c-1.3-.83-2.56-.1-3.83.15S9.92,30.91,8.42,31.25Zm13.26-2a11.4,11.4,0,0,0,6.1-1.5,9.72,9.72,0,0,0,2.34-15.45c-3.49-3.62-9.47-4-13.29-2.32C12.08,12,8.47,18.06,12,24.09a2.11,2.11,0,0,1,.29,2c-.16.43-.29.86-.41,1.31-.25,1-.18,1.12.89.89.2,0,.38-.16.57-.18,1-.11,1.86-.72,2.91-.16A10.22,10.22,0,0,0,21.68,29.23Z"/><path class="cls-1" d="M21.68,29.23A10.22,10.22,0,0,1,16.24,28c-1-.56-1.94.05-2.91.16-.19,0-.37.14-.57.18-1.07.23-1.14.13-.89-.89.12-.45.25-.88.41-1.31a2.11,2.11,0,0,0-.29-2c-3.52-6,.09-12,4.84-14.13,3.82-1.68,9.8-1.3,13.29,2.32a9.72,9.72,0,0,1-2.34,15.45A11.4,11.4,0,0,1,21.68,29.23Zm-6.54-12.8A3.81,3.81,0,0,0,16,18.87a14.16,14.16,0,0,0,5.3,4.78,7.89,7.89,0,0,0,4.58,1.16,2.91,2.91,0,0,0,2.6-2.12.81.81,0,0,0-.59-1.08,8.38,8.38,0,0,1-1.73-.75,1.11,1.11,0,0,0-1.72.46,1.35,1.35,0,0,1-2,.52,10.41,10.41,0,0,1-3.58-2.77,1,1,0,0,1,.06-1.68c.37-.33.87-.69.54-1.34s-.62-1.31-1-1.94a1.15,1.15,0,0,0-1.71-.55A2.72,2.72,0,0,0,15.14,16.43Z"/><path class="cls-2" d="M15.14,16.43a2.72,2.72,0,0,1,1.62-2.87,1.15,1.15,0,0,1,1.71.55c.35.63.64,1.3,1,1.94s-.17,1-.54,1.34a1,1,0,0,0-.06,1.68,10.41,10.41,0,0,0,3.58,2.77,1.35,1.35,0,0,0,2-.52,1.11,1.11,0,0,1,1.72-.46,8.38,8.38,0,0,0,1.73.75.81.81,0,0,1,.59,1.08,2.91,2.91,0,0,1-2.6,2.12,7.89,7.89,0,0,1-4.58-1.16A14.16,14.16,0,0,1,16,18.87,3.81,3.81,0,0,1,15.14,16.43Z"/></g></g></svg>