<svg xmlns="http://www.w3.org/2000/svg" viewBox="0 0 42.52 40.2"><defs><style>.cls-1{fill:#ce1f09;}.cls-2{fill:#fdfcfb;}</style></defs><title>img2G</title><g id="Capa_2" data-name="Capa 2"><g id="Capa_1-2" data-name="Capa 1"><path class="cls-1" d="M36.56,8.7c.33,1,1.15,1.67,1.48,2.64,0,.12.19.23.19.34,0,1.15.66,1.4,1.63,1.54a.89.89,0,0,0,.94-.37,1.79,1.79,0,0,1,.32,1.08c.12.8-.15,1.68.48,2.41a.61.61,0,0,1,0,.9c-.78.68-.82,1-.27,1.81,0,0,.1.06.15.09a.64.64,0,0,0,.15-.13c.2-.23.29-.78.67-.56s.13.8-.06,1.07a6.23,6.23,0,0,0-1.31,2.88,6.05,6.05,0,0,1-.61,1.27c-.17.37-.33.75.32,1s.38.72.09,1.15A25.29,25.29,0,0,1,39,28.06c-.27.32-.41.56.16.67.32.06.23.25.08.42a7.13,7.13,0,0,0-.68,1,1,1,0,0,0-.08.76c.32-.08.45-.45.85-.34a3.15,3.15,0,0,1-1.22,1.71,7,7,0,0,1-2.84,2.05,1.51,1.51,0,0,0-.73.67,11.13,11.13,0,0,1-6.88,4.63,19,19,0,0,1-4.23.61,1.74,1.74,0,0,1-1.1-.19,36.75,36.75,0,0,0,5.25-1.39,1.39,1.39,0,0,0-1.25,0,8.13,8.13,0,0,1-3.67.08c-.52-.12-1,.17-1.46.11-2.08-.26-4.21-.24-6.17-1a10.86,10.86,0,0,1-2.68-1.24,2.29,2.29,0,0,0-1.45-.58.47.47,0,0,1-.29-.07C9,34.38,6.8,33.53,5.5,31.65a2,2,0,0,0-.43-.4,7.26,7.26,0,0,1-1.56-1.91,21.4,21.4,0,0,1-2.12-5.18A12.45,12.45,0,0,1,1,20.71c0-.6.55-.75.72-1.2-.92,0-.91,0-.73-.92.09-.49.33-1-.36-1.3-.3.11,0,.53-.35.63-.15,0-.15-.12-.18-.21-.3-1.13.31-2.13.52-3.18a4.18,4.18,0,0,1,.8-1.69A3.52,3.52,0,0,0,2,11.18,11,11,0,0,1,5.66,4.25,21.78,21.78,0,0,1,8.74,1.93,3,3,0,0,1,11,1.3c-.45.43-1.18.59-1.55,1.21A.47.47,0,0,0,9,2.76c-1.39.59-3.28,2.42-3.4,3.29.49-.2.77-.68,1.15-1A20.08,20.08,0,0,0,9.24,3a.71.71,0,0,0,.57-.19,3,3,0,0,0,1.41-.45A18.45,18.45,0,0,1,20.83.06a33.28,33.28,0,0,1,3.46,0,46.4,46.4,0,0,1,5.32,1.19,30.93,30.93,0,0,1,3.75,1.67,8.43,8.43,0,0,1,1.92,1.48,22.17,22.17,0,0,1,3.54,3.83,2.11,2.11,0,0,1,.39,1.14c-.56-.09-.74-.62-1.12-.88-.19-.14-.4-.35-.6-.19s.11.35.17.53.43.45.27.86a3.12,3.12,0,0,1-1-.93.25.25,0,0,0-.41-.08c.12-.17.08-.3-.12-.36,0,0-.13.05-.15.09C36.25,8.63,36.36,8.71,36.56,8.7ZM20.81,17.85h-3c-.55,0-.88.17-.83.82a8.35,8.35,0,0,1,0,1.5c0,.53.19.71.7.7.9,0,1.8,0,2.7,0,1.14,0,1.21.13.67,1.19a3.72,3.72,0,0,1-.19.34c-1.11,1.81-3.71,2.17-5.46,1.6a4.81,4.81,0,0,1-3.21-6.05,5.06,5.06,0,0,1,6.37-3.24c.57.18,1.07.86,1.64.63s.94-.82,1.4-1.25.51-.69,0-1.09A7.46,7.46,0,0,0,18,11.57a8.66,8.66,0,0,0-4.36.68c-3.22,1.32-5.76,5.48-4.39,9.42a8.26,8.26,0,0,0,10.33,5.14c4-1.3,5.35-4.87,5.14-8.12,0-.63-.33-.87-1-.85C22.75,17.87,21.78,17.85,20.81,17.85Zm9.87,4.83c.87,0,.87,0,.89-.88v-1c0-1,0-1,.94-1,.43,0,.87,0,1.3,0,.64.05.7-.33.68-.82s.07-1-.67-.95c-.53,0-1.07,0-1.6,0s-.68-.17-.65-.65,0-.93,0-1.4c.05-.71-.32-.81-.92-.81s-.93.2-.89.86c0,.43,0,.87,0,1.3s-.22.72-.72.7-.93,0-1.4,0c-.74-.05-.75.4-.76,1s.11.87.77.81c.49-.05,1,0,1.5,0s.62.16.61.59,0,.94,0,1.4C29.79,22.68,29.79,22.68,30.68,22.68ZM33.5,6.33c.42.44.81.88,1.23,1.28a.54.54,0,0,0,.74,0c.26-.21.13-.48,0-.71s-.18-.13-.2-.22c-.13-.49-.68-.8-.54-1.44.06-.26-.24-.52-.57-.6-.12,0-.27-.08-.36.06s0,.49.17.7C34.5,6.09,33.74,6.06,33.5,6.33ZM26.44,1.65a.7.7,0,0,0,.91.08A.74.74,0,0,0,26.44,1.65Zm4,2.57a.46.46,0,0,0-.61,0A.45.45,0,0,0,30.44,4.22ZM3.25,26.12c0-.09,0-.18-.17-.14a.19.19,0,0,0-.12.11.17.17,0,0,0,.14.19C3.23,26.32,3.23,26.21,3.25,26.12ZM1,16a.32.32,0,0,0,0,.43A.32.32,0,0,0,1,16ZM32.68,4.94a.47.47,0,0,0-.17-.07s-.06.07-.09.12a.52.52,0,0,0,.16.06S32.64,5,32.68,4.94Z"/><path class="cls-2" d="M20.81,17.85c1,0,1.94,0,2.9,0,.63,0,.92.22,1,.85.21,3.25-1.11,6.82-5.14,8.12A8.26,8.26,0,0,1,9.2,21.67c-1.37-3.94,1.17-8.1,4.39-9.42A8.66,8.66,0,0,1,18,11.57,7.46,7.46,0,0,1,21.58,13c.52.4.52.62,0,1.09s-.86,1-1.4,1.25-1.07-.45-1.64-.63a5.06,5.06,0,0,0-6.37,3.24A4.81,4.81,0,0,0,15.39,24c1.75.57,4.35.21,5.46-1.6A3.72,3.72,0,0,0,21,22c.54-1.06.47-1.19-.67-1.19-.9,0-1.8,0-2.7,0-.51,0-.73-.17-.7-.7a8.35,8.35,0,0,0,0-1.5c0-.65.28-.83.83-.82Z"/><path class="cls-2" d="M30.68,22.68c-.89,0-.89,0-.9-.87,0-.46,0-.93,0-1.4s-.21-.6-.61-.59-1-.05-1.5,0c-.66.06-.79-.23-.77-.81s0-1,.76-1c.47,0,.94,0,1.4,0s.75-.18.72-.7,0-.87,0-1.3c0-.66.24-.87.89-.86s1,.1.92.81c0,.47,0,.94,0,1.4s.19.66.65.65,1.07,0,1.6,0c.74,0,.65.47.67.95s0,.87-.68.82c-.43,0-.87,0-1.3,0-.93,0-.93,0-.94,1v1C31.55,22.67,31.55,22.67,30.68,22.68Z"/></g></g></svg>