<svg xmlns="http://www.w3.org/2000/svg" xmlns:xlink="http://www.w3.org/1999/xlink" viewBox="0 0 42.52 39.77"><defs><style>.cls-1{fill:url(#Degradado_sin_nombre_21);}.cls-2{fill:#fcfcfc;}.cls-3{fill:url(#Degradado_sin_nombre_21-2);}.cls-4{fill:url(#Degradado_sin_nombre_21-3);}</style><linearGradient id="Degradado_sin_nombre_21" x1="2.96" y1="8.05" x2="39.94" y2="29.4" gradientUnits="userSpaceOnUse"><stop offset="0" stop-color="#fdc800"/><stop offset="0.37" stop-color="#d60b52"/><stop offset="0.89" stop-color="#312783"/></linearGradient><linearGradient id="Degradado_sin_nombre_21-2" x1="11.13" y1="13.77" x2="32.21" y2="25.94" xlink:href="#Degradado_sin_nombre_21"/><linearGradient id="Degradado_sin_nombre_21-3" x1="18.33" y1="17.93" x2="24.91" y2="21.73" xlink:href="#Degradado_sin_nombre_21"/></defs><title>img3Ig</title><g id="Capa_2" data-name="Capa 2"><g id="Capa_1-2" data-name="Capa 1"><path class="cls-1" d="M28.9,37.78a9.3,9.3,0,0,0-2.82.41,7.1,7.1,0,0,1-3.21,0,1,1,0,0,0-.39-.05c-1.82.35-3.58-.13-5.36-.35a13.27,13.27,0,0,1-3.94-1.37c-.7-.32-1.28-.91-2.12-.93-.25,0-.35-.27-.55-.39a35.08,35.08,0,0,1-5.8-5,1.86,1.86,0,0,1-.3-.38,21.81,21.81,0,0,1-2.08-4.36,20.11,20.11,0,0,1-.92-7.22,14.58,14.58,0,0,0-.1-1.67c-.28.36-.2.79-.39,1s-.6-.15-.91.26a5.51,5.51,0,0,1,.08-1.5c.45.14.17.55.32.7s.14.06.13,0a5.21,5.21,0,0,1,.59-2.51,11,11,0,0,1,1.15-2.55,2.22,2.22,0,0,0,.11-1.25s-.1-.14-.1-.14c-.43.31-.55.09-.47-.31s.19-.66.66-.51c.24.07.25-.12.3-.27C3.83,5.91,6.36,3.75,9.32,2a4.63,4.63,0,0,1,1-.51c.13,0,.29-.05.35.09s0,.27-.19.37a18.64,18.64,0,0,0-3,2.19A10,10,0,0,0,5.77,6.16c.55-.08.79-.52,1.12-.79a14.75,14.75,0,0,1,4.17-2.66c1.56-.62,3.08-1.37,4.68-1.92A14.58,14.58,0,0,1,20.68.11c.81,0,1.64-.11,2.41-.11A19.62,19.62,0,0,1,25.8.28a40.52,40.52,0,0,1,5.29,1.43A8.27,8.27,0,0,1,33.9,3.22a26.08,26.08,0,0,1,4.41,4.25A5.16,5.16,0,0,1,39.1,8.7c.06.13.08.28-.05.34a.42.42,0,0,1-.36,0c-.24-.21-.44-.47-.69-.67a.34.34,0,0,0-.45,0c-.16.17,0,.28.1.4s.14.34.21.57c-.66,0-.71-.55-1-.8-.13-.11-.23-.26-.39-.14s-.09.31,0,.43A9.25,9.25,0,0,1,38,11.13a1.45,1.45,0,0,1,.28.93.79.79,0,0,0,.84.95c.48,0,.91.36,1.42.17.31-.11.58.09.38.43s-.08.6.17.85,0,.81,0,1.16.64.55.6,1.06c0,.15,0,.31-.14.44-.76.68-.8,1-.3,1.78,0,.05.11.06.16.08a.17.17,0,0,0,.22-.14c.08-.31.11-.77.58-.53a.57.57,0,0,1,0,.86c-.68.39-.45,1.36-1.17,1.66,0,1.07-.69,1.94-.86,3a.53.53,0,0,0,.23.59c.62.42.64.62.22,1.19l-1.6,2.1c-.21.27-.42.51,0,.82s0,.48-.09.67-.41.37-.45.64-.15.51.24.48c.72-.05.4.38.23.58a14.57,14.57,0,0,1-1.52,1.62,5.35,5.35,0,0,1-2,1.39,2.36,2.36,0,0,0-1.08,1,11,11,0,0,1-5.31,3.94,20.42,20.42,0,0,1-5.68,1,1.47,1.47,0,0,1-.82-.14,3.33,3.33,0,0,1,1.41-.43c1.21-.23,2.41-.55,3.6-.85a2.2,2.2,0,0,0,1.2-.59c.12-.08.32,0,.34-.26,0,0-.09-.07-.13-.07C28.87,37.46,28.89,37.62,28.9,37.78ZM21.63,32v0h6.23a6.37,6.37,0,0,0,6.55-6.47c0-3.82,0-7.65,0-11.47a6.09,6.09,0,0,0-2.16-4.84,6.94,6.94,0,0,0-4.61-1.57H18c-1.06,0-2.12,0-3.17.06A6.19,6.19,0,0,0,8.88,14c-.05,4,0,7.91,0,11.86a5.8,5.8,0,0,0,1.31,3.69A6.17,6.17,0,0,0,14.9,32C17.14,32.06,19.38,32,21.63,32ZM33.3,6.3a2.46,2.46,0,0,1,.46.32,6.58,6.58,0,0,0,1.09,1,.53.53,0,0,0,.72,0c.25-.22,0-.41-.08-.61-.21-.56-.82-1-.58-1.73.06-.17-.22-.4-.42-.49a1.5,1.5,0,0,0-1.14-.2,3.84,3.84,0,0,0,.27.29C34.49,5.86,34.49,5.89,33.3,6.3ZM31,4.63c-.29-.52-.73-.52-1.21-.41C30.3,4.16,30.49,4.9,31,4.63ZM24.56,1.44a4.84,4.84,0,0,0,1.37,0A3.93,3.93,0,0,0,24.56,1.44Zm3.07.34c-.52-.2-.81-.31-1.19,0A1.31,1.31,0,0,0,27.63,1.78ZM3.83,26c0-.1,0-.2-.13-.22s-.17.07-.14.17.06.22.12.23S3.83,26.1,3.83,26Zm-2.17-10c0-.07-.09-.11-.14-.07a.21.21,0,0,0-.06.16.08.08,0,0,0,.13.06S1.64,16,1.66,15.94ZM37.93,31l-.24.12a.64.64,0,0,0,.18.06.36.36,0,0,0,.17-.07Zm.1-1s0,.06,0,.08.06.1.09,0a.11.11,0,0,0,0-.08Z"/><path class="cls-2" d="M21.63,32c-2.25,0-4.49.07-6.73,0a6.17,6.17,0,0,1-4.71-2.45,5.8,5.8,0,0,1-1.31-3.69c0-3.95-.05-7.91,0-11.86a6.19,6.19,0,0,1,5.9-6.25c1.05-.1,2.11-.06,3.17-.06h9.69a6.94,6.94,0,0,1,4.61,1.57,6.09,6.09,0,0,1,2.16,4.84c0,3.82,0,7.65,0,11.47A6.37,6.37,0,0,1,27.86,32H21.63Zm-.08-2.58c2.05,0,4.09,0,6.13,0a4.6,4.6,0,0,0,2-.38,3.43,3.43,0,0,0,2-3.4c0-3.86,0-7.71,0-11.56a3.81,3.81,0,0,0-4-3.89c-3.95,0-7.9,0-11.86,0a5.55,5.55,0,0,0-1.91.32,3.72,3.72,0,0,0-2.32,3.2c.06,4.12,0,8.23,0,12.35a2.27,2.27,0,0,0,.11,1,3.77,3.77,0,0,0,3.67,2.41Z"/><path class="cls-3" d="M21.55,29.42c-2,0-4.08,0-6.13,0A3.77,3.77,0,0,1,11.75,27a2.27,2.27,0,0,1-.11-1c0-4.12,0-8.23,0-12.35a3.72,3.72,0,0,1,2.32-3.2,5.55,5.55,0,0,1,1.91-.32c4,0,7.91,0,11.86,0a3.81,3.81,0,0,1,4,3.89c0,3.85,0,7.7,0,11.56a3.43,3.43,0,0,1-2,3.4,4.6,4.6,0,0,1-2,.38Zm0-15.8a6.25,6.25,0,0,0-5.12,10,7.16,7.16,0,0,0,7.29,2.16c2.93-.88,5.08-4.59,4.27-7.36A6.85,6.85,0,0,0,21.57,13.62Zm6.9,1.13A1.52,1.52,0,0,0,30,13.28a1.85,1.85,0,0,0-1.51-1.42,1.67,1.67,0,0,0-1.55,1.56A1.5,1.5,0,0,0,28.47,14.75Z"/><path class="cls-2" d="M21.57,13.62A6.85,6.85,0,0,1,28,18.39c.81,2.77-1.34,6.48-4.27,7.36a7.16,7.16,0,0,1-7.29-2.16,6.25,6.25,0,0,1,5.12-10Zm0,9.89a3.88,3.88,0,0,0,3.92-3.57,3.84,3.84,0,0,0-3.8-3.78,3.68,3.68,0,1,0-.12,7.35Z"/><path class="cls-2" d="M28.47,14.75a1.5,1.5,0,0,1-1.54-1.33,1.67,1.67,0,0,1,1.55-1.56A1.85,1.85,0,0,1,30,13.28,1.52,1.52,0,0,1,28.47,14.75Z"/><path class="cls-4" d="M21.58,23.51a3.68,3.68,0,1,1,.12-7.35,3.84,3.84,0,0,1,3.8,3.78A3.88,3.88,0,0,1,21.58,23.51Z"/></g></g></svg>