<svg xmlns="http://www.w3.org/2000/svg" viewBox="0 0 42.52 40.38"><defs><style>.cls-1{fill:#2c478c;}.cls-2{fill:#fbfcfd;}</style></defs><title>img4Fb</title><g id="Capa_2" data-name="Capa 2"><g id="Capa_1-2" data-name="Capa 1"><path class="cls-1" d="M37.52,9.12c-.4.06-.45-.34-.65-.52a.84.84,0,0,0-.76-.29,2.61,2.61,0,0,0-.67-1.49,1.78,1.78,0,0,1-.58-1.3c0-.7-.53-.92-1.29-.63.43.44,1.1.83.34,1.54a.27.27,0,0,0,0,.37c.71.53,1.13,1.5,2.2,1.49.29.75,1,1.16,1.37,1.86s1,1.44,1,2.43c0,.43.46.66.88.68a5.37,5.37,0,0,0,1.39.09c.3-.07.52.17.38.4-.46.77.42,1.43.12,2.18-.07.17.29.25.39.41a.53.53,0,0,1,0,.72,1.43,1.43,0,0,0-.26,2c.06.11.13.22.19.31.45-.08.48-.53.83-.89a1.74,1.74,0,0,1-.15,1.37c-.47.79-1.21,1.47-1.16,2.55a3.08,3.08,0,0,1-.61,1.4,1.21,1.21,0,0,0-.09,1c.05.2.1.48.4.13.1-.11.25,0,.27.18a1,1,0,0,1-.18.93c-.56.65-1.06,1.35-1.58,2s-.53.7.3.94c0,.46-.43.64-.66,1s-.65.54-.33,1c.26.15.3-.19.47-.24s.26-.15.33-.11a.24.24,0,0,1,.09.34,3.36,3.36,0,0,1-.32.51A26.18,26.18,0,0,1,36.64,34c-.29.26-.65.25-1,.45a15.94,15.94,0,0,0-2.41,2.45A10.21,10.21,0,0,1,29,39.46a16.45,16.45,0,0,1-5.21.91,2.45,2.45,0,0,1-1.11-.16c1.88-.51,3.77-.6,5.45-1.45a.51.51,0,0,0-.66-.15,11.82,11.82,0,0,1-4.27.32c-.57,0-1.13,0-1.7,0A16.15,16.15,0,0,1,15.25,38a10.83,10.83,0,0,1-2.86-1.29,1.26,1.26,0,0,0-.44-.24c-1.76-.44-3-1.74-4.42-2.73a7.41,7.41,0,0,1-2-1.92,3.53,3.53,0,0,0-.71-.68A6.47,6.47,0,0,1,3.25,29a23.37,23.37,0,0,1-1.06-2.33A17,17,0,0,1,1.1,22.85,26.34,26.34,0,0,1,1,18.59,2.35,2.35,0,0,0,.59,17L.33,18.37a3,3,0,0,1-.19-2.25,18.93,18.93,0,0,1,1.63-4c.26-.41.37-.9-.28-1.13-.35-.12-.26-.42-.17-.57s.22-.65.45-.52.36.16.45-.15a12.84,12.84,0,0,1,5.65-7l1.57-1a1.12,1.12,0,0,1,1.07-.09,3.22,3.22,0,0,1-1,.85,21,21,0,0,0-2.9,2.24c-.24.2-.56.41-.44.82-.1,0-.19,0-.21.1s.07.11.1.11.12-.11.11-.21a.72.72,0,0,0,.7-.3c.64-.68,1.54-1,2.17-1.75.26-.29.69-.22,1-.31a26.15,26.15,0,0,0,2.64-1.34,21.74,21.74,0,0,1,5-1.54,27.13,27.13,0,0,1,6-.13,14.59,14.59,0,0,1,5.79,1.31c1.4,0,2.48.79,3.66,1.4A15.51,15.51,0,0,1,35.5,4.61,18.92,18.92,0,0,1,39,8.36c.21.28.41.53.2.94-.65-.1-.89-.86-1.53-1-.28.21,0,.5-.11.74Zm-5-4c0-.14,0-.32-.22-.33a.09.09,0,0,0-.06.06c0,.23.19.17.3.25s.1.39.37.32c.1,0,.2-.09.14-.2s-.28-.11-.44-.11ZM15.87,28.34v4.32c0,.56.19.82.83.8,1.54-.06,3.09,0,4.63,0,.85,0,.86,0,.86-.91V24.29c0-.95,0-1,.95-1h3.52c.82,0,1-.14,1.11-1,.16-1,.28-2.05.46-3.07.22-1.22.24-1.22-1-1.23s-2.75,0-4.13,0c-.87,0-.88,0-.89-.92s0-1.55,0-2.32c0-1.76.8-2.52,2.61-2.5,1,0,2,0,3,0,.52,0,.73-.15.71-.68,0-1,0-2,0-3,0-.86,0-.9-.92-.9-1.5,0-3,0-4.52,0a8.35,8.35,0,0,0-4.18,1.11,5.49,5.49,0,0,0-3,5.13c0,1,0,2.08,0,3.12s0,1-1,1H11.23c-.25,0-.59-.11-.68.24a2.77,2.77,0,0,0-.2,1.36,8.38,8.38,0,0,1,.11,2.59c0,.94,0,1.06.88,1.06,1.24,0,2.48,0,3.72,0,.59,0,.84.19.82.81C15.85,25.52,15.87,26.93,15.87,28.34ZM25.8,1.65A10.56,10.56,0,0,0,27.92,2,2.2,2.2,0,0,0,25.8,1.65ZM3.15,26.56a.14.14,0,0,0,.14-.19c0-.11,0-.27-.18-.27s-.15.08-.14.19S3,26.54,3.15,26.56Zm27.53-22c0-.12-.07-.17-.17-.18a.22.22,0,0,0-.16.07c-.05.1,0,.18.11.21A.17.17,0,0,0,30.68,4.53Zm-.87-.39a1.31,1.31,0,0,0-.32,0c-.09,0-.11.06,0,.09a.63.63,0,0,0,.19,0A1.52,1.52,0,0,0,29.81,4.14Zm-28.45,16s.07-.05.06-.06S1.35,20,1.28,20a.16.16,0,0,0-.07.07Z"/><path class="cls-2" d="M15.87,28.34c0-1.41,0-2.82,0-4.23,0-.62-.23-.82-.82-.81-1.24,0-2.48,0-3.72,0-.92,0-.9-.12-.88-1.06a8.38,8.38,0,0,0-.11-2.59,2.77,2.77,0,0,1,.2-1.36c.09-.35.43-.24.68-.24h3.62c1,0,1,0,1-1s0-2.08,0-3.12a5.49,5.49,0,0,1,3-5.13A8.35,8.35,0,0,1,23.07,7.7c1.51,0,3,0,4.52,0,.88,0,.91,0,.92.9,0,1,0,2,0,3,0,.53-.19.7-.71.68-1,0-2,0-3,0-1.81,0-2.61.74-2.61,2.5,0,.77,0,1.55,0,2.32s0,.91.89.92c1.38,0,2.75,0,4.13,0s1.24,0,1,1.23c-.18,1-.3,2.05-.46,3.07-.13.82-.29.95-1.11,1H23.14c-.92,0-.94,0-.95,1v8.24c0,.9,0,.9-.86.91-1.54,0-3.09,0-4.63,0-.64,0-.83-.24-.83-.8Z"/></g></g></svg>